<?xml version="1.0" encoding="utf-8"?>
<!-- Generator: Adobe Illustrator 22.1.0, SVG Export Plug-In . SVG Version: 6.00 Build 0)  -->
<svg version="1.1" id="Ebene_1" xmlns="http://www.w3.org/2000/svg" xmlns:xlink="http://www.w3.org/1999/xlink" x="0px" y="0px"
	 viewBox="0 0 1080 1080" style="enable-background:new 0 0 1080 1080;" xml:space="preserve">
<style type="text/css">
	.st0{stroke:#000000;stroke-width:2;stroke-miterlimit:10;}
	.st1{fill:#9F3A1D;}
	.st2{fill:#9F3A1D;stroke:#842813;stroke-width:7;stroke-miterlimit:10;}
	.st3{fill:#DEB887;}
	.st4{fill:#FFFFFF;}
	.st5{stroke:#B78B0F;stroke-linecap:round;stroke-miterlimit:10;}
	.st6{fill:#8E2810;}
	.st7{fill:#7C1D0A;}
	.st8{fill:none;stroke:#000000;stroke-width:2;stroke-linecap:round;stroke-miterlimit:10;}
</style>
<g>
	<rect x="493.6" y="154.8" class="st0" width="24.5" height="10.9"/>
	<rect x="493.6" y="191.1" class="st0" width="24.5" height="10.9"/>
	<circle cx="486.9" cy="159.1" r="14.5"/>
	<circle cx="487.5" cy="196" r="14.5"/>
	
		<rect x="560.8" y="169.9" transform="matrix(-1 -1.224647e-16 1.224647e-16 -1 1146.1375 350.7861)" class="st0" width="24.5" height="10.9"/>
	
		<rect x="560.8" y="206.3" transform="matrix(-1 -1.224647e-16 1.224647e-16 -1 1146.1375 423.4089)" class="st0" width="24.5" height="10.9"/>
	<circle cx="592" cy="174.2" r="14.5"/>
	<circle cx="591.4" cy="211.1" r="14.5"/>
	<rect x="494.6" y="622" class="st1" width="86.5" height="95.2"/>
	<path class="st2" d="M570.1,407.9c29.5,2.2,131.1,19.8,91.3,156.8c-0.2,0.6-0.3,1.3-0.3,1.9c0,2.4,0.3,8.4,3.6,13
		c1.5,2.1,1.8,5,0.5,7.3c-0.4,0.8-1,1.6-1.8,2.4c-3.8,3.8-39.3-15.7-29.1,64.1c0,0.2,0,0.3,0,0.5c0.2,3.8,3.9,59.7,44.5,51.9
		c3-0.6,6,0.7,7.6,3.3l0,0c1.3,2.1,1.4,4.6,0.4,6.8c-2.1,4.6-4.5,13.5,1.8,23.6c8.9,14.1,73.3,158.9-107.2,188.7
		c-10.7,1.8-21.6,2.6-32.5,2.6h-21.9c-10.8,0-21.6-0.8-32.2-2.6c-180.6-29.8-116.2-174.7-107.3-188.8c6.3-10,3.9-19,1.8-23.6
		c-1-2.2-0.9-4.8,0.4-6.8l0.1-0.1c1.5-2.5,4.5-3.7,7.4-3.2c40.8,7.9,44.5-48,44.7-51.9c0-0.2,0-0.3,0-0.5
		c10.2-79.7-25.3-60.2-29.1-64.1c-0.8-0.8-1.4-1.6-1.8-2.4c-1.2-2.3-1-5.2,0.5-7.3c3.3-4.5,3.6-10.5,3.6-13c0-0.6-0.1-1.3-0.3-1.9
		c-39.8-137,61.8-154.6,91.3-156.8H570.1z"/>
	<g>
		<line x1="505.3" y1="714.2" x2="574.3" y2="714.2"/>
		<rect x="505.3" y="711.2" width="69" height="6.1"/>
	</g>
	<rect x="505.3" y="680.6" class="st3" width="69" height="3.2"/>
	<rect x="505.3" y="716.6" width="69" height="48.4"/>
	<polygon points="556.2,813.5 523.5,813.5 505.3,765 574.3,765 	"/>
	<polygon points="574.3,632.9 505.3,632.9 517.4,125.8 562.2,125.8 	"/>
	<circle class="st4" cx="522.9" cy="725.1" r="2.1"/>
	<circle class="st4" cx="539.8" cy="725.1" r="2.1"/>
	<circle class="st4" cx="557.4" cy="725.1" r="2.1"/>
	<polyline class="st5" points="523.5,125.8 522.9,630.5 522.9,725.5 	"/>
	<polyline class="st5" points="556.8,125.8 557.4,630.5 557.4,725.5 	"/>
	<line class="st5" x1="539.8" y1="125.8" x2="539.8" y2="725.5"/>
	<path class="st6" d="M559,122.2h9.5c1.3,0,2.2-1.3,1.8-2.6l-10.7-29.2c-0.3-0.7-1-1.2-1.8-1.2h-4.7c-1.2,0-2.1,1.1-1.9,2.3
		l5.9,29.2C557.3,121.6,558.1,122.2,559,122.2z"/>
	<path class="st7" d="M566.1,100.7h6.5c1.1,0,1.9,0.9,1.9,1.9V117c0,0.4-0.1,0.8-0.4,1.1l-0.8,1.2c-0.9,1.2-2.8,1-3.3-0.4l-5.7-15.5
		C563.8,102,564.8,100.7,566.1,100.7z"/>
	<path class="st6" d="M519.9,122.2h-9.5c-1.3,0-2.2-1.3-1.8-2.6l10.7-29.2c0.3-0.7,1-1.2,1.8-1.2h4.7c1.2,0,2.1,1.1,1.9,2.3
		l-5.9,29.2C521.6,121.6,520.8,122.2,519.9,122.2z"/>
	<path class="st7" d="M512.8,100.7h-6.5c-1.1,0-1.9,0.9-1.9,1.9V117c0,0.4,0.1,0.8,0.4,1.1l0.8,1.2c0.9,1.2,2.8,1,3.3-0.4l5.7-15.5
		C515.1,102,514.1,100.7,512.8,100.7z"/>
	<path class="st1" d="M539.8,81.7v55.5c0,0.9-0.9,1.7-2.1,1.7h-24.2c-1.3,0-2.3-1-2-2l19.2-55.5c0.2-0.8,1.1-1.3,2-1.3h5
		C538.9,80,539.8,80.7,539.8,81.7z"/>
	<path class="st1" d="M539.8,81.7v55.5c0,0.9,0.9,1.7,2.1,1.7h24.2c1.3,0,2.3-1,2-2L549,81.3c-0.2-0.8-1.1-1.3-2-1.3h-5
		C540.7,80,539.8,80.7,539.8,81.7z"/>
	<g>
		<circle cx="584.7" cy="650" r="4.8"/>
		<circle cx="636.6" cy="722.6" r="4.8"/>
		<path d="M587.8,646.3c0,0,15.3-20.9,15.1,33.4s25,79.8,37.5,45.7l-3.8,1.9c0,0-17.8,34.3-23-36.9s-26-52.1-31.1-44.6L587.8,646.3
			L587.8,646.3z"/>
		<line class="st8" x1="597" y1="696.1" x2="618.8" y2="689.3"/>
	</g>
	<g>
		<circle cx="496.9" cy="650" r="4.8"/>
		<circle cx="445.1" cy="722.6" r="4.8"/>
		<path d="M493.9,646.3c0,0-15.3-20.9-15.1,33.4c0.2,54.3-25,79.8-37.5,45.7l3.8,1.9c0,0,17.8,34.3,23-36.9
			c5.2-71.3,26-52.1,31.1-44.6L493.9,646.3L493.9,646.3z"/>
		<line class="st8" x1="484.6" y1="696.1" x2="462.9" y2="689.3"/>
	</g>
</g>
</svg>
